<svg xmlns="http://www.w3.org/2000/svg" viewBox="0 0 32 32">
  <defs>
    <linearGradient id="bg" x1="0" y1="0" x2="1" y2="1">
      <stop offset="0%" stop-color="#7c2d12"/>
      <stop offset="100%" stop-color="#92400e"/>
    </linearGradient>
  </defs>
  <rect width="32" height="32" rx="6" fill="url(#bg)"/>
  <!-- ears -->
  <polygon points="8,16 5,4 13,12" fill="#fdba74"/>
  <polygon points="24,16 27,4 19,12" fill="#fdba74"/>
  <polygon points="9,15 7,6 12,12" fill="#fb923c"/>
  <polygon points="23,15 25,6 20,12" fill="#fb923c"/>
  <!-- head -->
  <path d="M8,16 Q8,28 16,30 Q24,28 24,16 L20,10 Q16,8 12,10 Z" fill="#f97316"/>
  <!-- eyes -->
  <ellipse cx="12.5" cy="17" rx="2" ry="1.5" fill="#fef08a"/>
  <ellipse cx="19.5" cy="17" rx="2" ry="1.5" fill="#fef08a"/>
  <ellipse cx="12.5" cy="17" rx="1" ry="1.2" fill="#431407"/>
  <ellipse cx="19.5" cy="17" rx="1" ry="1.2" fill="#431407"/>
  <!-- snout -->
  <path d="M14,21 Q16,25 18,21 L16,20 Z" fill="#fed7aa"/>
  <!-- mouth -->
  <path d="M13,23 Q16,25 19,23" fill="none" stroke="#431407" stroke-width="0.8"/>
  <!-- nose -->
  <ellipse cx="16" cy="20.5" rx="1" ry="0.6" fill="#431407"/>
</svg>
